<?xml version="1.0" encoding="iso-8859-1"?>
<!-- Generator: Adobe Illustrator 19.0.0, SVG Export Plug-In . SVG Version: 6.00 Build 0)  -->
<svg version="1.1" id="Layer_1" xmlns="http://www.w3.org/2000/svg" xmlns:xlink="http://www.w3.org/1999/xlink" x="0px" y="0px"
	 viewBox="0 0 491.305 491.305" style="enable-background:new 0 0 491.305 491.305;" xml:space="preserve">
<g>
	<g>
		<g>
			<path d="M280.064,216.415c-4.76-0.672-9.785-0.845-15-0.303v123.192h15V216.415z"/>
			<path d="M242.34,76.304h15.724v-15H242.34c-12.908,0-23.409-10.386-23.409-23.152S229.309,15,242.066,15
				c12.681,0,22.998,10.44,22.998,23.272v61.032h15V38.272C280.064,17.169,263.018,0,242.066,0
				c-21.028,0-38.135,17.115-38.135,38.152C203.931,59.189,221.161,76.304,242.34,76.304z"/>
			<path d="M342.35,161.362h61.545v138.476c0,33.936-27.609,61.544-61.545,61.544v15.387c42.42,0,76.931-34.511,76.931-76.931
				V145.976H342.35V161.362z"/>
			<rect x="110.064" y="123.305" width="78" height="15"/>
			<rect x="204.064" y="123.305" width="23" height="15"/>
			<path d="M181.729,375.834c14.385,0,27.908-5.602,38.079-15.773l5.44-5.439l-76.158-76.157l-5.44,5.44
				c-10.171,10.171-15.772,23.693-15.772,38.078s5.602,27.907,15.772,38.078C153.821,370.233,167.345,375.834,181.729,375.834z
				 M166.293,357.226c-4.331-1.899-8.319-4.599-11.763-8.044c-3.445-3.444-6.146-7.432-8.044-11.764l21.448-1.641L166.293,357.226z
				 M183.457,334.59l19.492,19.491c-6.241,4.144-13.559,6.368-21.22,6.368c-0.084,0-0.167-0.006-0.25-0.006L183.457,334.59z
				 M143.263,321.984c0-7.662,2.224-14.98,6.367-21.219l19.491,19.491l-25.852,1.978
				C143.268,322.151,143.263,322.068,143.263,321.984z"/>
			<path d="M211.021,436.993c10.499,10.498,24.289,15.747,38.079,15.747c13.791,0,27.581-5.249,38.079-15.747
				c20.997-20.996,20.997-55.161,0-76.157l-5.44-5.44l-76.158,76.158L211.021,436.993z M276.299,426.114
				c-3.49,3.49-7.493,6.159-11.765,8.024l-1.639-21.43l21.43,1.64C282.459,418.621,279.789,422.624,276.299,426.114z
				 M281.193,377.701c4.284,6.477,6.398,13.976,6.35,21.462l-25.836-1.976L281.193,377.701z M247.372,411.522l1.977,25.835
				c-7.487,0.048-14.985-2.066-21.462-6.35L247.372,411.522z"/>
			<path d="M253.22,293.464l-32.639-32.639l-32.639,32.639l32.639,32.64L253.22,293.464z M220.581,282.585l10.879,10.879
				l-10.879,10.88l-10.879-10.88L220.581,282.585z"/>
			<path d="M123.757,429.3l32.639,32.64l32.639-32.64l-32.639-32.639L123.757,429.3z M156.396,440.18l-10.879-10.88l10.879-10.879
				l10.879,10.879L156.396,440.18z"/>
			<polygon points="409,43.316 398.356,32.748 370.001,61.305 288.064,61.305 288.064,76.305 376.245,76.305 			"/>
			
				<rect x="415.418" y="2.73" transform="matrix(0.7071 0.7071 -0.7071 0.7071 137.3962 -293.6053)" width="15.386" height="32.639"/>
			<path d="M265.064,99.305H51.215l43.849,64.368v327.632h240v-392h-55H265.064z M79.583,114.305h185.481v86.335
				c0.131-0.01,0.258-0.011,0.389-0.021c-0.131,0.01-0.258,0.01-0.389,0.021c-15.769,1.248-33.489,7.706-51.092,24.373
				c-19.783,18.73-43.128,23.336-69.387,13.688c-17.635-6.479-31.004-17.5-34.521-20.57V159.05L79.583,114.305z M320.064,476.304
				h-210V237.621v-0.001c7.059,4.967,16.991,10.969,28.738,15.347c10.799,4.025,21.332,6.025,31.486,6.024
				c19.869-0.001,38.27-7.664,54.262-22.807c13.874-13.135,27.757-18.747,40.514-20.073c5.215-0.542,10.24-0.369,15,0.303
				c19.84,2.802,35.051,14.233,40,18.37V476.304z M320.064,215.85c-6.261-4.008-14.663-8.494-24.579-11.599
				c-4.648-1.454-9.833-2.655-15.421-3.312v-86.634h40V215.85z"/>
		</g>
	</g>
</g>
<g>
</g>
<g>
</g>
<g>
</g>
<g>
</g>
<g>
</g>
<g>
</g>
<g>
</g>
<g>
</g>
<g>
</g>
<g>
</g>
<g>
</g>
<g>
</g>
<g>
</g>
<g>
</g>
<g>
</g>
</svg>
